<?xml version="1.0" encoding="UTF-8"?>
<svg width="160px" height="91px" viewBox="0 0 160 91" version="1.1" xmlns="http://www.w3.org/2000/svg" xmlns:xlink="http://www.w3.org/1999/xlink">
    <!-- Generator: Sketch 52.6 (67491) - http://www.bohemiancoding.com/sketch -->
    <title>Title_immunology</title>
    <desc>Created with Sketch.</desc>
    <defs>
        <polygon id="path-1" points="0.0770076923 0.403815789 55.0557 0.403815789 55.0557 54.8488947 0.0770076923 54.8488947"></polygon>
        <path d="M27.5657692,0.403815789 C12.3862308,0.403815789 0.0771538462,12.5921053 0.0771538462,27.6273684 C0.0771538462,42.6611842 12.3862308,54.8480263 27.5657692,54.8480263 C42.7482308,54.8480263 55.0558462,42.6611842 55.0558462,27.6273684" id="path-3"></path>
        <polygon id="path-5" points="0 90.5396825 159.060364 90.5396825 159.060364 0.407428571 0 0.407428571"></polygon>
    </defs>
    <g id="Symbols" stroke="none" stroke-width="1" fill="none" fill-rule="evenodd">
        <g id="top" transform="translate(-2.000000, -2.000000)">
            <g id="Title_immunology">
                <g id="Group-57" transform="translate(2.000000, 2.000000)">
                    <g id="Group-3" transform="translate(104.000000, 0.000000)">
                        <mask id="mask-2" fill="white">
                            <use xlink:href="#path-1"></use>
                        </mask>
                        <g id="Clip-2"></g>
                        <path d="M55.0557,27.6267895 C55.0557,42.6606053 42.7495462,54.8488947 27.5670846,54.8488947 C12.3846231,54.8488947 0.0770076923,42.6606053 0.0770076923,27.6267895 C0.0770076923,12.5915263 12.3846231,0.403236842 27.5670846,0.403236842 C42.7495462,0.403236842 55.0557,12.5915263 55.0557,27.6267895" id="Fill-1" fill="#FEFEFE" mask="url(#mask-2)"></path>
                    </g>
                    <g id="Group-6" transform="translate(104.000000, 0.000000)">
                        <mask id="mask-4" fill="white">
                            <use xlink:href="#path-3"></use>
                        </mask>
                        <g id="Clip-5"></g>
                        <path d="M55.0557,27.6267895 C55.0557,42.6606053 42.7495462,54.8488947 27.5670846,54.8488947 C12.3846231,54.8488947 0.0770076923,42.6606053 0.0770076923,27.6267895 C0.0770076923,12.5915263 12.3846231,0.403236842 27.5670846,0.403236842 C42.7495462,0.403236842 55.0557,12.5915263 55.0557,27.6267895" id="Fill-4" fill="#FEFEFE" mask="url(#mask-4)"></path>
                    </g>
                    <g id="Group-56">
                        <path d="M110.060218,40.5246857 C110.007855,40.8371937 109.7344,41.0620825 109.424582,41.0620825 C109.389673,41.0620825 109.3504,41.0591619 109.315491,41.0504 C108.959127,40.9919873 108.7264,40.6531937 108.787491,40.2983365 L109.380945,36.882654 L107.827491,34.3285587 C107.641309,34.0204317 107.738764,33.6217651 108.042764,33.4319238 C108.346764,33.2493841 108.743855,33.3443048 108.928582,33.6495111 L110.464582,36.1744 L113.664582,36.8344635 C114.015127,36.906019 114.242036,37.250654 114.167855,37.5996698 C114.093673,37.9516063 113.7504,38.1808762 113.402764,38.1064 L110.5824,37.522273 L110.060218,40.5246857 Z M115.229673,49.822527 L118.681309,39.8354159 L106.586764,16.794527 C105.465309,19.334019 104.713309,22.0677333 104.407855,24.9416381 L106.514036,21.6471619 C106.704582,21.3434159 107.103127,21.2557968 107.405673,21.4514794 C107.709673,21.6442413 107.794036,22.0458286 107.603491,22.3481143 L104.832582,26.6881778 L109.455127,29.4642413 C109.763491,29.6511619 109.8624,30.0498286 109.680582,30.3579556 C109.561309,30.5609397 109.343127,30.6748444 109.120582,30.6748444 C109.010036,30.6748444 108.895127,30.6456381 108.787491,30.5843048 L104.252218,27.8535111 L104.252218,27.8637333 C104.252218,36.8549079 108.575127,44.8136381 115.229673,49.822527 Z" id="Fill-7" fill="#FDBD10"></path>
                        <path d="M135.842909,48.8866095 C135.741091,48.9464825 135.630545,48.9713079 135.52,48.9713079 C135.296,48.9713079 135.077818,48.8574032 134.957091,48.6500381 L133.218909,45.6257206 L129.477818,44.7509905 C129.128727,44.6692127 128.910545,44.3201968 128.990545,43.9682603 C129.072,43.6207048 129.431273,43.4031175 129.771636,43.4848952 L133.137455,44.2690857 L133.851636,40.6913079 C133.928727,40.3364508 134.256,40.1028 134.616727,40.1801968 C134.971636,40.2517524 135.195636,40.5934667 135.122909,40.9468635 L134.32,44.9422921 L136.078545,48.0001968 C136.260364,48.3097841 136.152727,48.7055302 135.842909,48.8866095 Z M129.451636,51.5969587 C129.338182,51.6801968 129.201455,51.7210857 129.067636,51.7210857 C128.868364,51.7210857 128.676364,51.6334667 128.548364,51.4611492 L125.483636,47.3269905 L121.261091,50.6842603 C120.976,50.9120698 120.571636,50.8609587 120.354909,50.5820381 C120.129455,50.2943556 120.176,49.8840063 120.456727,49.6649587 L125.013818,46.0419111 L125.911273,41.0622286 C125.975273,40.7059111 126.305455,40.4708 126.663273,40.5394349 C127.012364,40.6022286 127.250909,40.9410222 127.185455,41.2958794 L126.293818,46.2405143 L129.584,50.6842603 C129.799273,50.9734032 129.738182,51.3793714 129.451636,51.5969587 Z M147.655273,11.1622286 C147.435636,11.4455302 147.028364,11.4937206 146.749091,11.2702921 L145.410909,10.2057206 L144.327273,11.6631175 C144.200727,11.8354349 144.005818,11.9274349 143.810909,11.9274349 C143.672727,11.9274349 143.540364,11.886546 143.424,11.7974667 C143.134545,11.5813397 143.079273,11.1753714 143.291636,10.8876889 L144.622545,9.09149841 L144.474182,7.16972063 C144.443636,6.81340317 144.709818,6.50089524 145.064727,6.47314921 C145.413818,6.43664127 145.732364,6.71118095 145.764364,7.06895873 L145.912727,8.95276825 L147.550545,10.2495302 C147.829818,10.4729587 147.880727,10.8847683 147.655273,11.1622286 Z M141.021091,15.8177206 L137.166545,19.2085778 L140.826182,23.1733397 C141.069091,23.4347365 141.051636,23.846546 140.789818,24.0933397 C140.667636,24.2072444 140.506182,24.2627365 140.350545,24.2627365 C140.176,24.2627365 140.004364,24.1955619 139.873455,24.0582921 L135.927273,19.7810222 L130.907636,19.2728317 C130.552727,19.2392444 130.293818,18.9194349 130.328727,18.5631175 C130.365091,18.2038794 130.688,17.9366413 131.038545,17.9789905 L136.021818,18.4842603 L140.168727,14.8393079 C140.434909,14.6027365 140.846545,14.6290222 141.082182,14.9021016 C141.320727,15.1708 141.293091,15.5796889 141.021091,15.8177206 Z M129.576727,29.6162603 C129.486545,29.6513079 129.400727,29.6702921 129.313455,29.6702921 C129.064727,29.6702921 128.829091,29.5257206 128.72,29.2818476 L124.485818,19.7094667 L113.637818,15.934546 C113.300364,15.8177206 113.122909,15.4497206 113.240727,15.106546 C113.357091,14.7677524 113.725091,14.5881333 114.065455,14.706419 L124.546909,18.3528317 L128.018909,7.23835556 C128.130909,6.89372063 128.494545,6.70972063 128.832,6.81194286 C129.169455,6.91708571 129.361455,7.28508571 129.256727,7.6268 L125.653818,19.1487048 L129.904,28.7575937 C130.050909,29.0832444 129.902545,29.4673079 129.576727,29.6162603 Z M123.784727,24.4861651 L121.454545,27.0767683 L121.777455,30.9232444 C121.809455,31.2810222 121.541818,31.5964508 121.184,31.6285778 C121.169455,31.6300381 121.147636,31.6300381 121.133091,31.6300381 C120.797091,31.6300381 120.513455,31.3730222 120.484364,31.0342286 L120.196364,27.5703556 L116.581818,27.986546 C116.200727,28.0245143 115.904,27.7733397 115.860364,27.4155619 C115.824,27.0563238 116.077091,26.735054 116.433455,26.6970857 L120.469818,26.2341651 L122.821818,23.6128952 C123.060364,23.3485778 123.472,23.3281333 123.735273,23.5661651 C123.998545,23.8056571 124.024727,24.2160063 123.784727,24.4861651 Z M116.919273,8.13499048 L118.789818,8.32337143 L120.362182,6.94337143 C120.631273,6.7068 121.04,6.7316254 121.275636,7.00470476 C121.511273,7.27632381 121.483636,7.68229206 121.217455,7.92178413 L119.930182,9.04476825 L121.163636,10.3780381 C121.403636,10.6379746 121.387636,11.0497841 121.124364,11.2965778 C121.002182,11.4134032 120.845091,11.4703556 120.688,11.4703556 C120.513455,11.4703556 120.338909,11.3988 120.210909,11.2629905 L118.695273,9.62013333 L116.786909,9.42737143 C116.433455,9.39232381 116.173091,9.07251429 116.208,8.71619683 C116.245818,8.35695873 116.561455,8.09702222 116.919273,8.13499048 Z M141.419636,51.5633714 L139.518545,51.3793714 C139.162182,51.3384825 138.901818,51.018673 138.936727,50.6594349 C138.973091,50.3074984 139.277091,50.0373397 139.646545,50.0840698 L141.514182,50.2666095 L143.086545,48.8866095 C143.352727,48.6529587 143.764364,48.6777841 144,48.9508635 C144.238545,49.2181016 144.209455,49.6313714 143.938909,49.8650222 L142.657455,50.9880063 L143.888,52.3241968 C143.892364,52.334419 143.898182,52.3475619 143.905455,52.3548635 C146.283636,51.147181 148.459636,49.606546 150.376727,47.7869905 L148.500364,45.7556889 L140.386909,44.9320698 C140.030545,44.8926413 139.771636,44.5742921 139.808,44.2165143 C139.842909,43.8631175 140.149818,43.6002603 140.519273,43.6338476 L148.594909,44.4560063 L155.313455,38.5563238 C155.585455,38.3139111 155.992727,38.3431175 156.226909,38.6147365 C156.462545,38.8848952 156.437818,39.2937841 156.165818,39.5318159 L149.736727,45.1803238 L151.300364,46.8742921 C154.08,43.9682603 156.225455,40.4576571 157.525818,36.5513079 L154.754909,34.5214667 L135.482182,38.2014667 C135.438545,38.2087683 135.399273,38.2146095 135.358545,38.2146095 C135.054545,38.2146095 134.782545,37.9955619 134.724364,37.6845143 C134.657455,37.3325778 134.888727,36.9937841 135.236364,36.9236889 L154.126545,33.3137841 L149.790545,13.6082603 C149.713455,13.2592444 149.931636,12.9102286 150.282182,12.8328317 C150.624,12.7554349 150.974545,12.9774032 151.054545,13.3278794 L155.485091,33.446673 L157.92,35.2297206 C158.570182,32.8829905 158.942545,30.4194349 158.942545,27.8638794 C158.942545,26.5452127 158.820364,25.2601333 158.638545,23.9925778 L157.584,22.8462286 L155.677091,22.6563873 C155.319273,22.618419 155.060364,22.3000698 155.095273,21.9452127 C155.131636,21.5859746 155.451636,21.3201968 155.805091,21.3610857 L157.675636,21.5523873 L158.093091,21.1843873 C155.300364,9.97791111 145.666909,1.51245079 133.886545,0.528196825 L136.581818,3.63575238 L143.348364,3.8796254 C143.706182,3.88984762 143.986909,4.19359365 143.972364,4.54845079 C143.962182,4.90768889 143.616,5.19975238 143.301818,5.17492698 L136.917818,4.94857778 L136.884364,11.6689587 C136.878545,12.0252762 136.590545,12.3158794 136.234182,12.3158794 L136.232727,12.3158794 C135.873455,12.314419 135.584,12.0179746 135.586909,11.6601968 L135.630545,4.51924444 L132.087273,0.436196825 C131.927273,0.436196825 131.76,0.412831746 131.597091,0.412831746 C120.994909,0.412831746 111.818182,6.48191111 107.282909,15.3358159 L119.648,38.8892762 L148.251636,22.6520063 C148.561455,22.4767683 148.955636,22.5848317 149.134545,22.8958794 C149.306182,23.2098476 149.198545,23.6055937 148.888727,23.7852127 L119.92,40.2283873 L116.318545,50.6360698 C120.682182,53.5975937 125.937455,55.3163873 131.597091,55.3163873 C135.547636,55.3163873 139.297455,54.4606413 142.689455,52.9419111 L141.419636,51.5633714 Z" id="Fill-9" fill="#FDBD10"></path>
                        <path d="M1.87985455,16.5807365 L1.87985455,25.8303873 L4.32494545,25.8303873 C6.15767273,25.8303873 6.76858182,25.1688635 6.76858182,24.2108952 L6.76858182,18.2002286 C6.76858182,17.2422603 6.15767273,16.5807365 4.32494545,16.5807365 L1.87985455,16.5807365 Z M1.2224,26.5547048 C1.09585455,26.5547048 1.04930909,26.4904508 1.04930909,26.3648635 L1.04930909,16.0462603 C1.04930909,15.9192127 1.11330909,15.856419 1.2224,15.856419 L4.32494545,15.856419 C6.83112727,15.856419 7.59912727,16.8479746 7.59912727,18.0746413 L7.59912727,24.3364825 C7.59912727,25.5631492 6.83112727,26.5547048 4.32494545,26.5547048 L1.2224,26.5547048 Z" id="Fill-11" fill="#FEFEFE"></path>
                        <path d="M14.7291636,25.0594857 L14.7291636,22.889454 L12.0338909,22.889454 C11.1248,22.889454 10.7335273,23.3918032 10.7335273,24.1467873 L10.7335273,24.7601206 C10.7335273,25.5005016 11.2033455,25.9867873 12.2535273,25.9867873 C13.4913455,25.9867873 14.3684364,25.3427873 14.7291636,25.0594857 Z M10.0760727,20.6084381 C10.0760727,19.4752317 10.7175273,18.6720571 12.8018909,18.6720571 C14.9022545,18.6720571 15.5277091,19.4752317 15.5277091,20.6084381 L15.5277091,26.3650095 C15.5277091,26.4905968 15.4811636,26.5533905 15.3560727,26.5533905 L14.9648,26.5533905 C14.8237091,26.5533905 14.7771636,26.4905968 14.7771636,26.3650095 L14.7451636,25.7356127 C14.2913455,26.0977714 13.3822545,26.6789778 12.0818909,26.6789778 C10.6244364,26.6789778 9.93498182,25.8772635 9.93498182,24.8550413 L9.93498182,24.053327 C9.93498182,23.0296444 10.5924364,22.2279302 11.8928,22.2279302 L14.7291636,22.2279302 L14.7291636,20.6712317 C14.7291636,19.9162476 14.3378909,19.3481841 12.7873455,19.3481841 C11.2498909,19.3481841 10.8440727,19.8841206 10.8440727,20.6537079 L10.8440727,20.8917397 C10.8440727,21.0319302 10.7815273,21.0801206 10.6549818,21.0801206 L10.2477091,21.0801206 C10.1226182,21.0801206 10.0760727,21.0319302 10.0760727,20.8917397 L10.0760727,20.6084381 Z" id="Fill-13" fill="#FEFEFE"></path>
                        <path d="M21.5537455,18.8617524 L21.5537455,19.2385143 C21.5537455,19.3801651 21.4752,19.4283556 21.3501091,19.4283556 C20.1602909,19.4750857 19.0941091,20.1994032 18.7173818,20.5294349 L18.7173818,26.3648635 C18.7173818,26.4904508 18.6548364,26.5547048 18.5297455,26.5547048 L18.0904727,26.5547048 C17.9493818,26.5547048 17.9028364,26.4904508 17.9028364,26.3648635 L17.9028364,18.9873397 C17.9028364,18.8617524 17.9493818,18.7989587 18.0904727,18.7989587 L18.4832,18.7989587 C18.6082909,18.7989587 18.6708364,18.8617524 18.6708364,18.9873397 L18.7028364,19.8357841 C19.1566545,19.4283556 20.1748364,18.6879746 21.3501091,18.6879746 C21.4752,18.6879746 21.5537455,18.7361651 21.5537455,18.8617524" id="Fill-15" fill="#FEFEFE"></path>
                        <path d="M24.2469818,26.3651556 C24.2469818,26.4907429 24.1844364,26.5535365 24.0593455,26.5535365 L23.6200727,26.5535365 C23.4789818,26.5535365 23.4309818,26.4907429 23.4309818,26.3651556 L23.4309818,19.0022349 C23.4309818,18.8620444 23.4789818,18.7977905 23.6200727,18.7977905 L24.0593455,18.7977905 C24.1844364,18.7977905 24.2469818,18.8620444 24.2469818,19.0022349 L24.2469818,26.3651556 Z M24.2469818,17.2410921 C24.2469818,17.3666794 24.1844364,17.429473 24.0593455,17.429473 L23.6200727,17.429473 C23.4789818,17.429473 23.4309818,17.3666794 23.4309818,17.2410921 L23.4309818,15.7471873 C23.4309818,15.6216 23.4789818,15.5588063 23.6200727,15.5588063 L24.0593455,15.5588063 C24.1844364,15.5588063 24.2469818,15.6216 24.2469818,15.7471873 L24.2469818,17.2410921 Z" id="Fill-17" fill="#FEFEFE"></path>
                        <path d="M27.4145455,18.9871937 L27.4305455,19.6487175 C27.8843636,19.2704952 28.808,18.6732254 30.1563636,18.6732254 C31.6283636,18.6732254 32.3032727,19.4588762 32.3032727,20.5599556 L32.3032727,26.3647175 C32.3032727,26.4903048 32.2567273,26.5545587 32.1301818,26.5545587 L31.6763636,26.5545587 C31.5512727,26.5545587 31.5047273,26.4903048 31.5047273,26.3647175 L31.5047273,20.7176698 C31.5047273,19.9466222 31.0494545,19.412146 29.9687273,19.412146 C28.6989091,19.412146 27.8058182,20.056146 27.4610909,20.3555111 L27.4610909,26.3647175 C27.4610909,26.4903048 27.3985455,26.5545587 27.2734545,26.5545587 L26.8341818,26.5545587 C26.6930909,26.5545587 26.6465455,26.4903048 26.6465455,26.3647175 L26.6465455,18.9871937 C26.6465455,18.8616063 26.6930909,18.7988127 26.8341818,18.7988127 L27.2269091,18.7988127 C27.352,18.7988127 27.4145455,18.8616063 27.4145455,18.9871937" id="Fill-19" fill="#FEFEFE"></path>
                        <path d="M35.3911273,24.6345333 C35.3911273,25.3588508 35.8289455,25.9400571 36.9271273,25.9400571 C38.1794909,25.9400571 39.0725818,25.2799937 39.4333091,25.0127556 L39.4333091,20.3718667 C39.0725818,20.0725016 38.1794909,19.4285016 36.9271273,19.4285016 C35.8289455,19.4285016 35.3911273,19.9936444 35.3911273,20.7179619 L35.3911273,24.6345333 Z M34.5751273,24.7455175 L34.5751273,20.6084381 C34.5751273,19.4591683 35.2340364,18.6720571 36.7234909,18.6720571 C38.0704,18.6720571 38.9940364,19.2853905 39.4493091,19.6475492 L39.4798545,19.0035492 C39.4798545,18.8618984 39.5278545,18.7976444 39.6674909,18.7976444 L40.0602182,18.7976444 C40.2013091,18.7976444 40.2478545,18.8618984 40.2478545,19.0035492 L40.2478545,27.8749778 C40.2478545,29.0242476 39.5424,29.8259619 37.4434909,29.8259619 L35.3285818,29.8259619 C35.2034909,29.8259619 35.1394909,29.7631683 35.1394909,29.637581 L35.1394909,29.3060889 C35.1394909,29.1805016 35.2034909,29.1177079 35.3285818,29.1177079 L37.4434909,29.1177079 C38.9780364,29.1177079 39.4333091,28.5832317 39.4333091,27.8121841 L39.4333091,25.7356127 C38.9634909,26.0977714 38.0544,26.6789778 36.7234909,26.6789778 C35.2340364,26.6789778 34.5751273,25.893327 34.5751273,24.7455175 Z" id="Fill-21" fill="#FEFEFE"></path>
                        <path d="M49.5069091,18.8296254 C49.632,18.8296254 49.6945455,18.8778159 49.6945455,19.0034032 L49.6945455,19.3173714 C49.6945455,19.4590222 49.632,19.5057524 49.5069091,19.5057524 L47.6581818,19.5057524 L47.6581818,24.540927 C47.6581818,25.3105143 48.0974545,25.8464508 49.632,25.8464508 L49.8836364,25.8464508 C50.0087273,25.8464508 50.0712727,25.9092444 50.0712727,26.0348317 L50.0712727,26.3648635 C50.0712727,26.5065143 50.0087273,26.5547048 49.8836364,26.5547048 L49.5374545,26.5547048 C47.4225455,26.5547048 46.8421818,25.7982603 46.8421818,24.6183238 L46.8421818,19.5057524 L45.856,19.5057524 C45.7149091,19.5057524 45.6683636,19.4590222 45.6683636,19.3173714 L45.6683636,19.0661968 C45.6683636,18.924546 45.7149091,18.892419 45.856,18.8778159 L46.6865455,18.8296254 L46.8421818,18.8296254 L46.8421818,17.1312762 C46.8421818,16.9896254 46.9061818,16.9268317 47.0312727,16.9268317 L47.4850909,16.9268317 C47.6116364,16.9268317 47.6581818,16.9896254 47.6581818,17.1312762 L47.6581818,18.8296254 L49.5069091,18.8296254 Z" id="Fill-23" fill="#FEFEFE"></path>
                        <path d="M56.7093818,20.6706476 C56.7093818,19.8996 56.2235636,19.3651238 54.6875636,19.3651238 C53.1530182,19.3651238 52.6672,19.8996 52.6672,20.6706476 L52.6672,24.6821397 C52.6672,25.4677905 53.1530182,25.9876635 54.6875636,25.9876635 C56.2235636,25.9876635 56.7093818,25.4677905 56.7093818,24.6821397 L56.7093818,20.6706476 Z M51.8512,20.6239175 C51.8512,19.4746476 52.5886545,18.6729333 54.6875636,18.6729333 C56.7879273,18.6729333 57.5239273,19.4746476 57.5239273,20.6239175 L57.5239273,24.7449333 C57.5239273,25.8766794 56.7879273,26.679854 54.6875636,26.679854 C52.5886545,26.679854 51.8512,25.8766794 51.8512,24.7449333 L51.8512,20.6239175 Z" id="Fill-25" fill="#FEFEFE"></path>
                        <path d="M3.83854545,37.1812889 C3.96363636,37.1812889 4.02618182,37.228019 4.02618182,37.3536063 L4.02618182,37.6690349 C4.02618182,37.8106857 3.96363636,37.8574159 3.83854545,37.8574159 L1.98981818,37.8574159 L1.98981818,42.8911302 C1.98981818,43.6621778 2.42909091,44.196654 3.96363636,44.196654 L4.21527273,44.196654 C4.34036364,44.196654 4.40290909,44.2609079 4.40290909,44.3864952 L4.40290909,44.716527 C4.40290909,44.8581778 4.34036364,44.9049079 4.21527273,44.9049079 L3.86909091,44.9049079 C1.75418182,44.9049079 1.17527273,44.1499238 1.17527273,42.9699873 L1.17527273,37.8574159 L0.187636364,37.8574159 C0.0465454545,37.8574159 0,37.8106857 0,37.6690349 L0,37.4178603 C0,37.2747492 0.0465454545,37.2440825 0.187636364,37.228019 L1.01818182,37.1812889 L1.17527273,37.1812889 L1.17527273,35.4814794 C1.17527273,35.3412889 1.23781818,35.2770349 1.36290909,35.2770349 L1.81672727,35.2770349 C1.94327273,35.2770349 1.98981818,35.3412889 1.98981818,35.4814794 L1.98981818,37.1812889 L3.83854545,37.1812889 Z" id="Fill-27" fill="#FEFEFE"></path>
                        <path d="M10.0381091,37.2126857 L10.0381091,37.5894476 C10.0381091,37.7310984 9.95956364,37.7792889 9.83447273,37.7792889 C8.64465455,37.826019 7.57847273,38.5503365 7.20174545,38.8803683 L7.20174545,44.7157968 C7.20174545,44.8428444 7.1392,44.9056381 7.01410909,44.9056381 L6.57483636,44.9056381 C6.43374545,44.9056381 6.3872,44.8428444 6.3872,44.7157968 L6.3872,37.338273 C6.3872,37.2126857 6.43374545,37.1498921 6.57483636,37.1498921 L6.96756364,37.1498921 C7.09265455,37.1498921 7.1552,37.2126857 7.1552,37.338273 L7.1872,38.1881778 C7.64101818,37.7792889 8.6592,37.0389079 9.83447273,37.0389079 C9.95956364,37.0389079 10.0381091,37.0870984 10.0381091,37.2126857" id="Fill-29" fill="#FEFEFE"></path>
                        <path d="M16.3642182,43.410419 L16.3642182,41.2403873 L13.6689455,41.2403873 C12.7598545,41.2403873 12.3685818,41.7427365 12.3685818,42.4977206 L12.3685818,43.111054 C12.3685818,43.8514349 12.8398545,44.339181 13.8885818,44.339181 C15.1264,44.339181 16.0034909,43.6937206 16.3642182,43.410419 Z M11.7111273,38.9593714 C11.7111273,37.8261651 12.3540364,37.0229905 14.4369455,37.0229905 C16.5373091,37.0229905 17.1642182,37.8261651 17.1642182,38.9593714 L17.1642182,44.7159429 C17.1642182,44.8415302 17.1176727,44.9043238 16.9911273,44.9043238 L16.5998545,44.9043238 C16.4587636,44.9043238 16.4122182,44.8415302 16.4122182,44.7159429 L16.3802182,44.086546 C15.9264,44.4487048 15.0173091,45.0299111 13.7169455,45.0299111 C12.2594909,45.0299111 11.5700364,44.2281968 11.5700364,43.2059746 L11.5700364,42.4042603 C11.5700364,41.3805778 12.2274909,40.5788635 13.5293091,40.5788635 L16.3642182,40.5788635 L16.3642182,39.0221651 C16.3642182,38.267181 15.9729455,37.7005778 14.4224,37.7005778 C12.8864,37.7005778 12.4791273,38.235054 12.4791273,39.0061016 L12.4791273,39.242673 C12.4791273,39.3828635 12.4165818,39.431054 12.2900364,39.431054 L11.8827636,39.431054 C11.7576727,39.431054 11.7111273,39.3828635 11.7111273,39.242673 L11.7111273,38.9593714 Z" id="Fill-31" fill="#FEFEFE"></path>
                        <path d="M20.3058909,37.3388571 L20.3218909,37.9989206 C20.7757091,37.6221587 21.7008,37.0234286 23.0477091,37.0234286 C24.5211636,37.0234286 25.1946182,37.8105397 25.1946182,38.911619 L25.1946182,44.716381 C25.1946182,44.8419683 25.1480727,44.9047619 25.0229818,44.9047619 L24.5677091,44.9047619 C24.4426182,44.9047619 24.3960727,44.8419683 24.3960727,44.716381 L24.3960727,39.0693333 C24.3960727,38.2982857 23.9422545,37.7638095 22.8600727,37.7638095 C21.5917091,37.7638095 20.6986182,38.4078095 20.3524364,38.7071746 L20.3524364,44.716381 C20.3524364,44.8419683 20.2898909,44.9047619 20.1648,44.9047619 L19.7269818,44.9047619 C19.5858909,44.9047619 19.5378909,44.8419683 19.5378909,44.716381 L19.5378909,37.3388571 C19.5378909,37.2132698 19.5858909,37.1504762 19.7269818,37.1504762 L20.1182545,37.1504762 C20.2433455,37.1504762 20.3058909,37.2132698 20.3058909,37.3388571" id="Fill-33" fill="#FEFEFE"></path>
                        <path d="M31.9863273,38.7385714 C31.9863273,38.0770476 31.4074182,37.6535556 30.0910545,37.6535556 C28.7906909,37.6535556 28.2263273,38.0770476 28.2263273,38.7385714 L28.2263273,39.2263175 C28.2263273,39.7607937 28.7266909,40.0908254 29.1034182,40.2018095 L31.5470545,40.9728571 C32.2845091,41.2079683 32.8648727,41.6796508 32.8648727,42.4039683 L32.8648727,43.3327302 C32.8648727,44.2600317 32.0328727,45.0310794 30.0910545,45.0310794 C28.1477818,45.0310794 27.3492364,44.2600317 27.3492364,43.3327302 L27.3492364,42.8917143 C27.3492364,42.7821905 27.3957818,42.7179365 27.5208727,42.7179365 L27.9441455,42.7179365 C28.0532364,42.7179365 28.1012364,42.7821905 28.1012364,42.8917143 L28.1012364,43.3006032 C28.1012364,43.962127 28.7586909,44.4016825 30.0910545,44.4016825 C31.4379636,44.4016825 32.1114182,43.962127 32.1114182,43.3006032 L32.1114182,42.5923492 C32.1114182,42.0739365 31.6576,41.8066984 31.1252364,41.6329206 L28.6801455,40.861873 C28.1477818,40.6895556 27.4583273,40.1550794 27.4583273,39.3679683 L27.4583273,38.7385714 C27.4583273,37.8098095 28.1797818,37.0241587 30.1070545,37.0241587 C32.0168727,37.0241587 32.7543273,37.8098095 32.7543273,38.7385714 L32.7543273,39.2263175 C32.7543273,39.3519048 32.7077818,39.3986349 32.5652364,39.3986349 L32.1594182,39.3986349 C32.0488727,39.3986349 31.9863273,39.3519048 31.9863273,39.2263175 L31.9863273,38.7385714 Z" id="Fill-35" fill="#FEFEFE"></path>
                        <path d="M35.6269091,37.1812889 L35.6269091,35.7501778 C35.6269091,34.6009079 36.3323636,33.8152571 38.4472727,33.8152571 L38.5258182,33.8152571 C38.6509091,33.8152571 38.7134545,33.8619873 38.7134545,34.0036381 L38.7134545,34.3190667 C38.7134545,34.4592571 38.6509091,34.5220508 38.5258182,34.5220508 L38.4472727,34.5220508 C36.8967273,34.5220508 36.4574545,35.056527 36.4574545,35.8290349 L36.4574545,37.1812889 L38.2741818,37.1812889 C38.4007273,37.1812889 38.4632727,37.228019 38.4632727,37.3536063 L38.4632727,37.6690349 C38.4632727,37.8106857 38.4007273,37.8574159 38.2741818,37.8574159 L36.4574545,37.8574159 L36.4574545,44.716527 C36.4574545,44.8421143 36.3949091,44.9049079 36.2698182,44.9049079 L35.8145455,44.9049079 C35.6894545,44.9049079 35.6269091,44.8421143 35.6269091,44.716527 L35.6269091,37.8574159 L34.6087273,37.8574159 C34.4836364,37.8574159 34.4370909,37.8106857 34.4370909,37.6690349 L34.4370909,37.4178603 C34.4370909,37.2747492 34.4836364,37.228019 34.6087273,37.228019 L35.4858182,37.1812889 L35.6269091,37.1812889 Z" id="Fill-37" fill="#FEFEFE"></path>
                        <path d="M45.0481455,39.021581 C45.0481455,38.2505333 44.5623273,37.7160571 43.0263273,37.7160571 C41.4917818,37.7160571 41.0059636,38.2505333 41.0059636,39.021581 L41.0059636,43.033073 C41.0059636,43.8201841 41.4917818,44.3385968 43.0263273,44.3385968 C44.5623273,44.3385968 45.0481455,43.8201841 45.0481455,43.033073 L45.0481455,39.021581 Z M40.1914182,38.9748508 C40.1914182,37.825581 40.9274182,37.0238667 43.0263273,37.0238667 C45.1266909,37.0238667 45.8626909,37.825581 45.8626909,38.9748508 L45.8626909,43.0958667 C45.8626909,44.2276127 45.1266909,45.0307873 43.0263273,45.0307873 C40.9274182,45.0307873 40.1914182,44.2276127 40.1914182,43.0958667 L40.1914182,38.9748508 Z" id="Fill-39" fill="#FEFEFE"></path>
                        <path d="M51.8321455,37.2126857 L51.8321455,37.5894476 C51.8321455,37.7310984 51.7536,37.7792889 51.6285091,37.7792889 C50.4372364,37.826019 49.3725091,38.5503365 48.9957818,38.8803683 L48.9957818,44.7157968 C48.9957818,44.8428444 48.9332364,44.9056381 48.8081455,44.9056381 L48.3688727,44.9056381 C48.2277818,44.9056381 48.1812364,44.8428444 48.1812364,44.7157968 L48.1812364,37.338273 C48.1812364,37.2126857 48.2277818,37.1498921 48.3688727,37.1498921 L48.7601455,37.1498921 C48.8866909,37.1498921 48.9492364,37.2126857 48.9492364,37.338273 L48.9797818,38.1881778 C49.4350545,37.7792889 50.4532364,37.0389079 51.6285091,37.0389079 C51.7536,37.0389079 51.8321455,37.0870984 51.8321455,37.2126857" id="Fill-41" fill="#FEFEFE"></path>
                        <path d="M54.2896,37.1498921 C54.4146909,37.1498921 54.4772364,37.2126857 54.4772364,37.338273 L54.4932364,37.9837333 C54.9165091,37.6215746 55.7936,37.0243048 57.1259636,37.0243048 C58.2066909,37.0243048 58.8496,37.4492571 59.1317818,38.1093206 C59.5070545,37.7632254 60.4001455,37.0243048 61.8896,37.0243048 C63.3616,37.0243048 64.0510545,37.8099556 64.0510545,38.9110349 L64.0510545,44.7157968 C64.0510545,44.8428444 63.9885091,44.9056381 63.8634182,44.9056381 L63.4241455,44.9056381 C63.2830545,44.9056381 63.2205091,44.8428444 63.2205091,44.7157968 L63.2205091,39.0687492 C63.2205091,38.2977016 62.7812364,37.7632254 61.6845091,37.7632254 C60.3696,37.7632254 59.5550545,38.4554159 59.2408727,38.722654 C59.2728727,38.8321778 59.2728727,38.9592254 59.2728727,39.0687492 L59.2728727,44.7157968 C59.2728727,44.8428444 59.2248727,44.9056381 59.0997818,44.9056381 L58.6459636,44.9056381 C58.5194182,44.9056381 58.4728727,44.8428444 58.4728727,44.7157968 L58.4728727,39.0687492 C58.4728727,38.2977016 58.0176,37.7632254 56.9368727,37.7632254 C55.6685091,37.7632254 54.8539636,38.4072254 54.5252364,38.7065905 L54.5252364,44.7157968 C54.5252364,44.8428444 54.4626909,44.9056381 54.3361455,44.9056381 L53.8968727,44.9056381 C53.7572364,44.9056381 53.7092364,44.8428444 53.7092364,44.7157968 L53.7092364,37.338273 C53.7092364,37.2126857 53.7572364,37.1498921 53.8968727,37.1498921 L54.2896,37.1498921 Z" id="Fill-43" fill="#FEFEFE"></path>
                        <mask id="mask-6" fill="white">
                            <use xlink:href="#path-5"></use>
                        </mask>
                        <g id="Clip-46"></g>
                        <path d="M1.94618182,81.9019048 L3.37890909,81.9019048 L3.37890909,67.1088889 L1.94618182,67.1088889 L1.94618182,81.9019048 Z M3.98545455,62.1832381 C3.98545455,62.9250794 3.41090909,63.4989841 2.67636364,63.4989841 C1.94472727,63.4989841 1.37163636,62.9250794 1.37163636,62.1832381 C1.37163636,61.4764444 1.94472727,60.8704127 2.67636364,60.8704127 C3.41090909,60.8704127 3.98545455,61.4764444 3.98545455,62.1832381 Z" id="Fill-45" fill="#FEFEFE" mask="url(#mask-6)"></path>
                        <path d="M10.2987636,68.9681651 L10.3598545,68.9681651 C11.0304,67.5910857 12.4965818,66.7922921 14.0573091,66.7922921 C15.9394909,66.7922921 17.4362182,67.7561016 18.2042182,69.4807365 C18.9998545,67.7181333 20.6289455,66.7922921 22.5067636,66.7922921 C26.2987636,66.7922921 27.0653091,69.3858159 27.0653091,72.620419 L27.0653091,81.9021968 L25.6296727,81.9021968 L25.6296727,72.4261968 C25.6296727,70.1510222 25.2805818,68.1328635 22.4762182,68.1328635 C19.4158545,68.1328635 18.6813091,70.8286095 18.6813091,73.3812444 L18.6813091,81.9021968 L17.2471273,81.9021968 L17.2471273,72.7752127 C17.2471273,70.4737524 16.8325818,68.1328635 13.9642182,68.1328635 C10.8704,68.1328635 10.2987636,71.3674667 10.2987636,73.7711492 L10.2987636,81.9021968 L8.86021818,81.9021968 L8.86021818,67.109181 L10.2987636,67.109181 L10.2987636,68.9681651 Z" id="Fill-47" fill="#FEFEFE" mask="url(#mask-6)"></path>
                        <path d="M33.4152727,68.9681651 L33.4778182,68.9681651 C34.1469091,67.5910857 35.616,66.7922921 37.1752727,66.7922921 C39.0574545,66.7922921 40.5556364,67.7561016 41.3207273,69.4807365 C42.1178182,67.7181333 43.7425455,66.7922921 45.6276364,66.7922921 C49.4181818,66.7922921 50.1832727,69.3858159 50.1832727,72.620419 L50.1832727,81.9021968 L48.7490909,81.9021968 L48.7490909,72.4261968 C48.7490909,70.1510222 48.3985455,68.1328635 45.5941818,68.1328635 C42.5338182,68.1328635 41.7992727,70.8286095 41.7992727,73.3812444 L41.7992727,81.9021968 L40.3665455,81.9021968 L40.3665455,72.7752127 C40.3665455,70.4737524 39.9476364,68.1328635 37.0821818,68.1328635 C33.9883636,68.1328635 33.4152727,71.3674667 33.4152727,73.7711492 L33.4152727,81.9021968 L31.9825455,81.9021968 L31.9825455,67.109181 L33.4152727,67.109181 L33.4152727,68.9681651 Z" id="Fill-48" fill="#FEFEFE" mask="url(#mask-6)"></path>
                        <path d="M65.4586182,67.109181 L65.4586182,75.9747683 C65.4586182,77.4832762 65.4891636,78.9830222 64.5655273,80.2374349 C63.5458909,81.5736254 61.8222545,82.2147048 60.1640727,82.2147048 C58.5073455,82.2147048 56.7866182,81.5736254 55.7655273,80.2374349 C54.8433455,78.9830222 54.8768,77.4832762 54.8768,75.9747683 L54.8768,67.109181 L56.3066182,67.109181 L56.3066182,75.4636571 C56.3066182,78.3171175 56.6280727,80.872673 60.1640727,80.872673 C63.7044364,80.872673 64.0229818,78.3171175 64.0229818,75.4636571 L64.0229818,67.109181 L65.4586182,67.109181 Z" id="Fill-49" fill="#FEFEFE" mask="url(#mask-6)"></path>
                        <path d="M71.5815273,69.4208635 L71.6440727,69.4208635 C72.5037091,67.7823873 74.1008,66.7922921 76.0106182,66.7922921 C79.8026182,66.7922921 80.8586182,69.1623873 80.8586182,72.9665143 L80.8586182,81.9021968 L79.4229818,81.9021968 L79.4229818,72.9665143 C79.4229818,70.3087365 79.1029818,68.1328635 75.8855273,68.1328635 C72.1866182,68.1328635 71.5815273,71.5938159 71.5815273,74.6006095 L71.5815273,81.9021968 L70.1458909,81.9021968 L70.1458909,67.109181 L71.5815273,67.109181 L71.5815273,69.4208635 Z" id="Fill-50" fill="#FEFEFE" mask="url(#mask-6)"></path>
                        <path d="M85.7697455,74.5334349 C85.7697455,77.8980063 88.4170182,80.872673 91.8904727,80.872673 C95.4933818,80.872673 98.3006545,78.1185143 98.3006545,74.5334349 C98.3006545,70.8870222 95.5239273,68.1328635 91.8904727,68.1328635 C88.3835636,68.1328635 85.7697455,71.1104508 85.7697455,74.5334349 M99.7333818,74.5056889 C99.7333818,78.8910222 96.3210182,82.2147048 91.9864727,82.2147048 C87.7450182,82.2147048 84.3370182,78.7318476 84.3370182,74.5334349 C84.3370182,70.2780698 87.7130182,66.7922921 91.9864727,66.7922921 C96.3210182,66.7922921 99.7333818,70.1145143 99.7333818,74.5056889" id="Fill-51" fill="#FEFEFE" mask="url(#mask-6)"></path>
                        <polygon id="Fill-52" fill="#FEFEFE" mask="url(#mask-6)" points="103.208727 81.9019048 104.644364 81.9019048 104.644364 55.4935238 103.208727 55.4935238"></polygon>
                        <path d="M110.193745,74.5334349 C110.193745,77.8980063 112.838109,80.872673 116.314473,80.872673 C119.917382,80.872673 122.721745,78.1185143 122.721745,74.5334349 C122.721745,70.8870222 119.947927,68.1328635 116.314473,68.1328635 C112.807564,68.1328635 110.193745,71.1104508 110.193745,74.5334349 M124.157382,74.5056889 C124.157382,78.8910222 120.745018,82.2147048 116.410473,82.2147048 C112.170473,82.2147048 108.761018,78.7318476 108.761018,74.5334349 C108.761018,70.2780698 112.139927,66.7922921 116.410473,66.7922921 C120.745018,66.7922921 124.157382,70.1145143 124.157382,74.5056889" id="Fill-53" fill="#FEFEFE" mask="url(#mask-6)"></path>
                        <path d="M128.497745,74.4058032 C128.497745,77.8010413 130.729018,80.8720889 134.299927,80.8720889 C138.059927,80.8720889 140.100655,77.8010413 140.100655,74.2466286 C140.100655,70.8294857 137.771927,68.1337397 134.202473,68.1337397 C130.823564,68.1337397 128.497745,71.2106286 128.497745,74.4058032 Z M141.438836,81.1904381 C141.438836,83.4641524 141.376291,85.5115175 139.972655,87.4698032 C138.603927,89.3521524 136.433745,90.3188825 134.107927,90.3188825 C130.250473,90.3188825 127.062109,88.0466286 126.838109,83.9781841 L128.273745,83.9781841 C128.432291,87.0477714 131.014109,88.9710095 133.978473,88.9710095 C135.830109,88.9710095 137.614836,88.3328508 138.698473,86.7659302 C139.846109,85.0661206 140.0032,83.1516444 140.0032,81.1641524 L140.0032,79.3358349 L139.940655,79.3358349 C138.634473,81.0955175 136.433745,82.2141206 134.202473,82.2141206 C129.930473,82.2141206 127.062109,78.6042159 127.062109,74.4773587 C127.062109,70.2146921 130.091927,66.7917079 134.394473,66.7917079 C136.785745,66.7917079 138.570473,67.8183111 139.940655,69.6685333 L140.0032,69.6685333 L140.0032,67.1085968 L141.438836,67.1085968 L141.438836,81.1904381 Z" id="Fill-54" fill="#FEFEFE" mask="url(#mask-6)"></path>
                        <polygon id="Fill-55" fill="#FEFEFE" mask="url(#mask-6)" points="143.675927 67.109181 145.172655 67.109181 151.453382 80.4944508 157.097018 67.109181 158.5632 67.109181 148.678109 90.5399746 147.213382 90.5399746 150.749382 82.1548317"></polygon>
                    </g>
                </g>
            </g>
        </g>
    </g>
</svg>